<svg xmlns="http://www.w3.org/2000/svg"  viewBox="0 0 100 100" width="100px" height="100px" baseProfile="basic"><path fill="#c7ede6" d="M87.215,56.71C88.35,54.555,89,52.105,89,49.5c0-6.621-4.159-12.257-10.001-14.478	C78.999,35.015,79,35.008,79,35c0-11.598-9.402-21-21-21c-9.784,0-17.981,6.701-20.313,15.757C36.211,29.272,34.638,29,33,29	c-7.692,0-14.023,5.793-14.89,13.252C12.906,43.353,9,47.969,9,53.5C9,59.851,14.149,65,20.5,65c0.177,0,0.352-0.012,0.526-0.022	C21.022,65.153,21,65.324,21,65.5C21,76.822,30.178,86,41.5,86c6.437,0,12.175-2.972,15.934-7.614C59.612,80.611,62.64,82,66,82	c4.65,0,8.674-2.65,10.666-6.518C77.718,75.817,78.837,76,80,76c6.075,0,11-4.925,11-11C91,61.689,89.53,58.727,87.215,56.71z"/><path fill="#fdfcef" d="M83.5,59.5V60h3v-0.5c0,0,4.242,0,5.5,0c2.485,0,4.5-2.015,4.5-4.5c0-2.333-1.782-4.229-4.055-4.455 C92.467,50.364,92.5,50.187,92.5,50c0-2.485-2.015-4.5-4.5-4.5c-1.438,0-2.703,0.686-3.527,1.736 C84.333,44.6,82.171,42.5,79.5,42.5c-2.761,0-5,2.239-5,5c0,0.446,0.077,0.87,0.187,1.282C74.045,48.005,73.086,47.5,72,47.5 c-1.781,0-3.234,1.335-3.455,3.055C68.364,50.533,68.187,50.5,68,50.5c-2.485,0-4.5,2.015-4.5,4.5s2.015,4.5,4.5,4.5s9.5,0,9.5,0 H83.5z"/><path fill="#472b29" d="M79.5,42c-3.033,0-5.5,2.467-5.5,5.5c0,0.016,0,0.031,0,0.047C73.398,47.192,72.71,47,72,47 c-1.831,0-3.411,1.261-3.858,3.005C68.095,50.002,68.048,50,68,50c-2.757,0-5,2.243-5,5s2.243,5,5,5h15.5 c0.276,0,0.5-0.224,0.5-0.5S83.776,59,83.5,59H68c-2.206,0-4-1.794-4-4s1.794-4,4-4c0.117,0,0.23,0.017,0.343,0.032l0.141,0.019 c0.021,0.003,0.041,0.004,0.062,0.004c0.246,0,0.462-0.185,0.495-0.437C69.232,49.125,70.504,48,72,48 c0.885,0,1.723,0.401,2.301,1.1c0.098,0.118,0.241,0.182,0.386,0.182c0.078,0,0.156-0.018,0.228-0.056 c0.209-0.107,0.314-0.346,0.254-0.573C75.054,48.218,75,47.852,75,47.5c0-2.481,2.019-4.5,4.5-4.5c2.381,0,4.347,1.872,4.474,4.263 c0.011,0.208,0.15,0.387,0.349,0.45c0.05,0.016,0.101,0.024,0.152,0.024c0.15,0,0.296-0.069,0.392-0.192 C85.638,46.563,86.779,46,88,46c2.206,0,4,1.794,4,4c0,0.117-0.017,0.23-0.032,0.343l-0.019,0.141 c-0.016,0.134,0.022,0.268,0.106,0.373s0.207,0.172,0.34,0.185C94.451,51.247,96,52.949,96,55c0,2.206-1.794,4-4,4h-5.5 c-0.276,0-0.5,0.224-0.5,0.5s0.224,0.5,0.5,0.5H92c2.757,0,5-2.243,5-5c0-2.397-1.689-4.413-4.003-4.877 C92.999,50.082,93,50.041,93,50c0-2.757-2.243-5-5-5c-1.176,0-2.293,0.416-3.183,1.164C84.219,43.76,82.055,42,79.5,42L79.5,42z"/><path fill="#472b29" d="M78,49c-1.403,0-2.609,0.999-2.913,2.341C74.72,51.119,74.301,51,73.875,51 c-1.202,0-2.198,0.897-2.353,2.068C71.319,53.022,71.126,53,70.938,53c-1.529,0-2.811,1.2-2.918,2.732 C68.01,55.87,68.114,55.99,68.251,56c0.006,0,0.012,0,0.018,0c0.13,0,0.24-0.101,0.249-0.232c0.089-1.271,1.151-2.268,2.419-2.268 c0.229,0,0.47,0.042,0.738,0.127c0.022,0.007,0.045,0.01,0.067,0.01c0.055,0,0.11-0.02,0.156-0.054 C71.962,53.537,72,53.455,72,53.375c0-1.034,0.841-1.875,1.875-1.875c0.447,0,0.885,0.168,1.231,0.473 c0.047,0.041,0.106,0.063,0.165,0.063c0.032,0,0.063-0.006,0.093-0.019c0.088-0.035,0.148-0.117,0.155-0.212 C75.623,50.512,76.712,49.5,78,49.5c0.208,0,0.425,0.034,0.682,0.107c0.023,0.007,0.047,0.01,0.07,0.01 c0.109,0,0.207-0.073,0.239-0.182c0.038-0.133-0.039-0.271-0.172-0.309C78.517,49.04,78.256,49,78,49L78,49z M91.883,50.5 c-1.326,0-2.508,0.897-2.874,2.182c-0.038,0.133,0.039,0.271,0.172,0.309C89.205,52.997,89.228,53,89.25,53 c0.109,0,0.209-0.072,0.24-0.182C89.795,51.748,90.779,51,91.883,51c0.117,0,0.23,0.014,0.342,0.029 c0.012,0.002,0.023,0.003,0.035,0.003c0.121,0,0.229-0.092,0.246-0.217c0.019-0.137-0.077-0.263-0.214-0.281 C92.158,50.516,92.022,50.5,91.883,50.5L91.883,50.5z"/><path fill="#fff" d="M17.5,47h-10C7.224,47,7,46.776,7,46.5S7.224,46,7.5,46h10c0.276,0,0.5,0.224,0.5,0.5	S17.777,47,17.5,47z M20.5,47h-1c-0.276,0-0.5-0.224-0.5-0.5s0.224-0.5,0.5-0.5h1c0.276,0,0.5,0.224,0.5,0.5S20.777,47,20.5,47z M25.491,49H16.5c-0.276,0-0.5-0.224-0.5-0.5s0.224-0.5,0.5-0.5h8.991c0.276,0,0.5,0.224,0.5,0.5S25.767,49,25.491,49z M14.5,49h-1	c-0.276,0-0.5-0.224-0.5-0.5s0.224-0.5,0.5-0.5h1c0.276,0,0.5,0.224,0.5,0.5S14.777,49,14.5,49z M11.5,49h-2	C9.224,49,9,48.776,9,48.5S9.224,48,9.5,48h2c0.276,0,0.5,0.224,0.5,0.5S11.777,49,11.5,49z M17.5,51h-2c-0.276,0-0.5-0.224-0.5-0.5	s0.224-0.5,0.5-0.5h2c0.276,0,0.5,0.224,0.5,0.5S17.776,51,17.5,51z M20.5,42c-0.177,0-0.823,0-1,0c-0.276,0-0.5,0.224-0.5,0.5	s0.224,0.5,0.5,0.5c0.177,0,0.823,0,1,0c0.276,0,0.5-0.224,0.5-0.5S20.776,42,20.5,42z M20.5,44c-0.177,0-4.823,0-5,0	c-0.276,0-0.5,0.224-0.5,0.5s0.224,0.5,0.5,0.5c0.177,0,4.823,0,5,0c0.276,0,0.5-0.224,0.5-0.5S20.776,44,20.5,44z M25.5,46	c-0.177,0-2.823,0-3,0c-0.276,0-0.5,0.224-0.5,0.5s0.224,0.5,0.5,0.5c0.177,0,2.823,0,3,0c0.276,0,0.5-0.224,0.5-0.5	S25.776,46,25.5,46z"/><path fill="#fff" d="M72.5,24h-10c-0.276,0-0.5-0.224-0.5-0.5s0.224-0.5,0.5-0.5h10c0.276,0,0.5,0.224,0.5,0.5 S72.776,24,72.5,24z M76.5,24h-2c-0.276,0-0.5-0.224-0.5-0.5s0.224-0.5,0.5-0.5h2c0.276,0,0.5,0.224,0.5,0.5S76.776,24,76.5,24z M81.5,26h-10c-0.276,0-0.5-0.224-0.5-0.5s0.224-0.5,0.5-0.5h10c0.276,0,0.5,0.224,0.5,0.5S81.777,26,81.5,26z M69.5,26h-1 c-0.276,0-0.5-0.224-0.5-0.5s0.224-0.5,0.5-0.5h1c0.276,0,0.5,0.224,0.5,0.5S69.776,26,69.5,26z M66.47,26H64.5 c-0.276,0-0.5-0.224-0.5-0.5s0.224-0.5,0.5-0.5h1.97c0.276,0,0.5,0.224,0.5,0.5S66.746,26,66.47,26z M75.5,22h-5 c-0.276,0-0.5-0.224-0.5-0.5s0.224-0.5,0.5-0.5h5c0.276,0,0.5,0.224,0.5,0.5S75.777,22,75.5,22z M72.5,28h-2 c-0.276,0-0.5-0.224-0.5-0.5s0.224-0.5,0.5-0.5h2c0.276,0,0.5,0.224,0.5,0.5S72.776,28,72.5,28z"/><path fill="#39c1d7" d="M61.341,72.999c-0.46,0-1.134-0.149-1.725-0.858l-9.445-12.449l-2.38,2.35v9.248 c0,1.019-0.676,1.702-1.683,1.702h-4.431c-1.004,0-1.678-0.684-1.678-1.702V24.733c0-1.019,0.674-1.703,1.678-1.703h4.431 c1.004,0,1.679,0.684,1.679,1.703v26.723L58.83,39.835c0.522-0.542,1.088-0.814,1.686-0.814h6.33c0.65,0,1.212,0.361,1.466,0.942 c0.256,0.587,0.154,1.3-0.247,1.732L55.878,53.913l12.79,16.47c0.381,0.495,0.438,1.158,0.154,1.734 C68.555,72.661,68.041,73,67.482,73C67.461,73,61.341,72.999,61.341,72.999z"/><path fill="#472b29" d="M46.109,24.03c0.453,0,0.678,0.233,0.678,0.703V53.96l12.768-13.437 c0.32-0.332,0.641-0.504,0.961-0.504h6.329c0.64,0,0.723,0.74,0.486,0.995L54.548,53.831l13.33,17.165 C68.182,71.392,67.868,72,67.482,72c-0.008,0-0.015,0-0.023-0.001l-6.118,0c-0.367,0-0.683-0.17-0.957-0.5L50.279,58.18 l-3.489,3.443v9.666c0,0.47-0.231,0.703-0.682,0.703h-4.431c-0.453,0-0.678-0.235-0.678-0.703V24.733 c0-0.47,0.227-0.703,0.678-0.703H46.109 M46.109,22.03h-4.431c-1.552,0-2.678,1.137-2.678,2.703v46.556 c0,1.566,1.126,2.703,2.678,2.703h4.431c1.554,0,2.682-1.137,2.682-2.703v-8.829l1.272-1.256l8.728,11.505 c0.018,0.023,0.036,0.047,0.055,0.069c0.654,0.788,1.541,1.222,2.495,1.222l6.09,0C67.449,74,67.467,74,67.482,74 c0.942,0,1.8-0.552,2.237-1.441c0.453-0.92,0.355-1.986-0.257-2.782L57.208,53.996l11.539-11.568 c0.017-0.017,0.034-0.035,0.05-0.052c0.674-0.727,0.847-1.857,0.43-2.813c-0.415-0.952-1.328-1.543-2.383-1.543h-6.329 c-0.604,0-1.511,0.193-2.4,1.115l-9.329,9.817V24.733C48.787,23.167,47.661,22.03,46.109,22.03L46.109,22.03z"/><path fill="#fdfcef" d="M24.5,67.5c0,0-1.567,0-3.5,0s-3.5-1.567-3.5-3.5c0-1.781,1.335-3.234,3.055-3.455 C20.527,60.366,20.5,60.187,20.5,60c0-1.933,1.567-3.5,3.5-3.5c1.032,0,1.95,0.455,2.59,1.165c0.384-1.808,1.987-3.165,3.91-3.165 c2.209,0,4,1.791,4,4c0,0.191-0.03,0.374-0.056,0.558C34.872,58.714,35.408,58.5,36,58.5c1.228,0,2.245,0.887,2.455,2.055 C38.634,60.527,38.813,60.5,39,60.5c1.933,0,3.5,1.567,3.5,3.5s-1.567,3.5-3.5,3.5c-1.933,0-7.5,0-7.5,0V68h-7V67.5z"/><path fill="#472b29" d="M22.5,62.75c0-0.947-0.771-1.718-1.719-1.718c-0.013-0.002-0.669-0.002-1.113,0.118 c-0.133,0.037-0.27-0.042-0.306-0.176c-0.036-0.133,0.043-0.27,0.176-0.306c0.507-0.137,1.21-0.127,1.244-0.136 c1.223,0,2.218,0.995,2.218,2.218c0,0.138-0.112,0.25-0.25,0.25S22.5,62.888,22.5,62.75z M29,67.5c0,0.276,0.224,0.5,0.5,0.5 s0.5-0.224,0.5-0.5S29.776,67,29.5,67S29,67.224,29,67.5z"/><path fill="#472b29" d="M21,68h3.5c0.276,0,0.5-0.224,0.5-0.5S24.776,67,24.5,67H21c-1.654,0-3-1.346-3-3 c0-1.496,1.125-2.768,2.618-2.959c0.134-0.018,0.255-0.088,0.336-0.196s0.115-0.244,0.094-0.377C21.025,60.314,21,60.16,21,60 c0-1.654,1.346-3,3-3c0.85,0,1.638,0.355,2.219,1c0.125,0.139,0.321,0.198,0.5,0.148c0.182-0.049,0.321-0.195,0.36-0.379 C27.42,56.165,28.859,55,30.5,55c1.93,0,3.5,1.57,3.5,3.5c0,0.143-0.021,0.28-0.041,0.418c-0.029,0.203,0.063,0.438,0.242,0.54 s0.396,0.118,0.556-0.01C35.122,59.155,35.551,59,36,59c0.966,0,1.792,0.691,1.963,1.644c0.048,0.267,0.296,0.446,0.569,0.405 C38.686,61.025,38.84,61,39,61c1.654,0,3,1.346,3,3s-1.346,3-3,3h-7.5c-0.276,0-0.5,0.224-0.5,0.5s0.224,0.5,0.5,0.5H39 c2.206,0,4-1.794,4-4s-1.794-4-4-4c-0.059,0-0.116,0.002-0.174,0.006C38.412,58.82,37.289,58,36,58 c-0.349,0-0.689,0.061-1.011,0.18C34.824,55.847,32.874,54,30.5,54c-1.831,0-3.466,1.127-4.153,2.774 C25.667,56.276,24.845,56,24,56c-2.206,0-4,1.794-4,4c0,0.048,0.001,0.095,0.004,0.142C18.261,60.59,17,62.169,17,64 C17,66.206,18.794,68,21,68z"/><path fill="#472b29" d="M26.5,67c0.159,0,0.841,0,1,0c0.276,0,0.5,0.224,0.5,0.5S27.776,68,27.5,68c-0.159,0-0.841,0-1,0 c-0.276,0-0.5-0.224-0.5-0.5S26.224,67,26.5,67z"/><line x1="42.5" x2="42.5" y1="39.138" y2="52" fill="#fff" stroke="#472b29" stroke-linecap="round" stroke-linejoin="round" stroke-miterlimit="10" stroke-width=".5"/><line x1="42.5" x2="42.5" y1="33.681" y2="37.463" fill="#fff" stroke="#472b29" stroke-linecap="round" stroke-linejoin="round" stroke-miterlimit="10" stroke-width=".5"/><line x1="42.5" x2="42.5" y1="26" y2="32.149" fill="#fff" stroke="#472b29" stroke-linecap="round" stroke-linejoin="round" stroke-miterlimit="10" stroke-width=".5"/><line x1="58.051" x2="64.894" y1="61.445" y2="70.383" fill="#fff" stroke="#472b29" stroke-linecap="round" stroke-linejoin="round" stroke-miterlimit="10" stroke-width=".5"/><line x1="53.5" x2="56.782" y1="55.5" y2="59.787" fill="#fff" stroke="#472b29" stroke-linecap="round" stroke-linejoin="round" stroke-miterlimit="10" stroke-width=".5"/></svg>